name Walk8.mot
datacolumns 19
datarows 22
range 3.17200000 3.19300000
endheader

                time	   L_ground_force_vx	   L_ground_force_vy	   L_ground_force_vz	   L_ground_force_px	   L_ground_force_py	   L_ground_force_pz	   R_ground_force_vx	   R_ground_force_vy	   R_ground_force_vz	   R_ground_force_px	   R_ground_force_py	   R_ground_force_pz	   L_ground_torque_x	   L_ground_torque_y	   L_ground_torque_z	   R_ground_torque_x	   R_ground_torque_y	   R_ground_torque_z	
          3.17200000	         20.20353514	        723.85077095	         20.99231436	         -0.17605583	          0.00000000	          0.03375214	         -0.02422757	          0.37071958	          0.00771599	          0.00045439	          0.00000000	          0.00018714	          0.00000000	         -0.58615257	          0.00000000	          0.00000000	          0.00505955	          0.00000000	
          3.17300000	         20.75553423	        725.96526561	         21.22450670	         -0.17569984	          0.00000000	          0.03382739	         -0.02587080	          0.38316445	          0.00808364	          0.00046022	          0.00000000	          0.00018937	          0.00000000	         -0.58532291	          0.00000000	          0.00000000	          0.00536680	          0.00000000	
          3.17400000	         21.31337419	        728.08665220	         21.45048783	         -0.17534778	          0.00000000	          0.03390355	         -0.02755989	          0.39518331	          0.00845206	          0.00046468	          0.00000000	          0.00019102	          0.00000000	         -0.58440048	          0.00000000	          0.00000000	          0.00568044	          0.00000000	
          3.17500000	         21.87703918	        730.21435165	         21.66947527	         -0.17499966	          0.00000000	          0.03398063	         -0.02929211	          0.40668697	          0.00881982	          0.00046764	          0.00000000	          0.00019203	          0.00000000	         -0.58347496	          0.00000000	          0.00000000	          0.00599976	          0.00000000	
          3.17600000	         22.44653979	        732.34782588	         21.88073975	         -0.17465547	          0.00000000	          0.03405862	         -0.03106432	          0.41758001	          0.00918532	          0.00046894	          0.00000000	          0.00019234	          0.00000000	         -0.58263182	          0.00000000	          0.00000000	          0.00632398	          0.00000000	
          3.17700000	         23.02191898	        734.48658057	         22.08361783	         -0.17431522	          0.00000000	          0.03413752	         -0.03287293	          0.42776073	          0.00954685	          0.00046843	          0.00000000	          0.00019189	          0.00000000	         -0.58195151	          0.00000000	          0.00000000	          0.00665221	          0.00000000	
          3.17800000	         23.60325645	        736.63016531	         22.27751878	         -0.17397892	          0.00000000	          0.03421732	         -0.03471383	          0.43712088	          0.00990255	          0.00046594	          0.00000000	          0.00019060	          0.00000000	         -0.58150929	          0.00000000	          0.00000000	          0.00698347	          0.00000000	
          3.17900000	         24.19067066	        738.77817157	         22.46192627	         -0.17364657	          0.00000000	          0.03429801	         -0.03658244	          0.44554555	          0.01025041	          0.00046129	          0.00000000	          0.00018841	          0.00000000	         -0.58137560	          0.00000000	          0.00000000	          0.00731667	          0.00000000	
          3.18000000	         24.78431835	        740.93022949	         22.63639589	         -0.17331818	          0.00000000	          0.03437957	         -0.03847361	          0.45291302	          0.01058825	          0.00045430	          0.00000000	          0.00018523	          0.00000000	         -0.58161643	          0.00000000	          0.00000000	          0.00765062	          0.00000000	
          3.18100000	         25.38439129	        743.08600453	         22.80054988	         -0.17299378	          0.00000000	          0.03446198	         -0.04038162	          0.45909463	          0.01091377	          0.00044479	          0.00000000	          0.00018100	          0.00000000	         -0.58229365	          0.00000000	          0.00000000	          0.00798400	          0.00000000	
          3.18200000	         25.99111110	        745.24519483	         22.95407051	         -0.17267337	          0.00000000	          0.03454522	         -0.04230016	          0.46395464	          0.01122446	          0.00043255	          0.00000000	          0.00017562	          0.00000000	         -0.58346503	          0.00000000	          0.00000000	          0.00831538	          0.00000000	
          3.18300000	         26.60472269	        747.40752954	         23.09669325	         -0.17235698	          0.00000000	          0.03462926	         -0.04422229	          0.46735017	          0.01151766	          0.00041739	          0.00000000	          0.00016902	          0.00000000	         -0.58518395	          0.00000000	          0.00000000	          0.00864322	          0.00000000	
          3.18400000	         27.22548745	        749.57276785	         23.22820068	         -0.17204463	          0.00000000	          0.03471409	         -0.04614039	          0.46913112	          0.01179054	          0.00039911	          0.00000000	          0.00016110	          0.00000000	         -0.58749886	          0.00000000	          0.00000000	          0.00896583	          0.00000000	
          3.18500000	         27.85367673	        751.74069778	         23.34841785	         -0.17173635	          0.00000000	          0.03479967	         -0.04804618	          0.46914010	          0.01204009	          0.00037747	          0.00000000	          0.00015179	          0.00000000	         -0.59045276	          0.00000000	          0.00000000	          0.00928139	          0.00000000	
          3.18600000	         28.48956648	        753.91113458	         23.45720926	         -0.17143215	          0.00000000	          0.03488598	         -0.04993064	          0.46721241	          0.01226310	          0.00035226	          0.00000000	          0.00014098	          0.00000000	         -0.59408268	          0.00000000	          0.00000000	          0.00958794	          0.00000000	
          3.18700000	         29.13343294	        756.08391836	         23.55447732	         -0.17113206	          0.00000000	          0.03497301	         -0.05178400	          0.46317604	          0.01245619	          0.00032326	          0.00000000	          0.00012859	          0.00000000	         -0.59841970	          0.00000000	          0.00000000	          0.00988338	          0.00000000	
          3.18800000	         29.78554965	        758.25891116	         23.64016202	         -0.17083607	          0.00000000	          0.03506073	         -0.05359573	          0.45685172	          0.01261578	          0.00029022	          0.00000000	          0.00011452	          0.00000000	         -0.60348914	          0.00000000	          0.00000000	          0.01016545	          0.00000000	
          3.18900000	         30.44618510	        760.43599387	         23.71424120	         -0.17054420	          0.00000000	          0.03514913	         -0.05535446	          0.44805295	          0.01273810	          0.00025292	          0.00000000	          0.00009866	          0.00000000	         -0.60931138	          0.00000000	          0.00000000	          0.01043176	          0.00000000	
          3.19000000	         31.11560068	        762.61506293	         23.77673091	         -0.17025644	          0.00000000	          0.03523818	         -0.05704801	          0.43658614	          0.01281917	          0.00021111	          0.00000000	          0.00008092	          0.00000000	         -0.61590259	          0.00000000	          0.00000000	          0.01067973	          0.00000000	
          3.19100000	         31.79404835	        764.79602723	         23.82768545	         -0.16997280	          0.00000000	          0.03532786	         -0.05866334	          0.42225071	          0.01285484	          0.00016453	          0.00000000	          0.00006120	          0.00000000	         -0.62327556	          0.00000000	          0.00000000	          0.01090663	          0.00000000	
          3.19200000	         32.48176796	        766.97880494	         23.86719682	         -0.16969328	          0.00000000	          0.03541815	         -0.06018649	          0.40483930	          0.01284073	          0.00011296	          0.00000000	          0.00003940	          0.00000000	         -0.63144016	          0.00000000	          0.00000000	          0.01110958	          0.00000000	
          3.19300000	         33.17898433	        769.16332004	         23.89539369	         -0.16941789	          0.00000000	          0.03550904	         -0.06160262	          0.38413799	          0.01277229	          0.00005612	          0.00000000	          0.00001540	          0.00000000	         -0.64040359	          0.00000000	          0.00000000	          0.01128550	          0.00000000	
